PathFileType	4	(X/Y/Z)	/Users/itak/Documents/Research/Walk-IL/dataset/trc/00436_00167.trc
DataRate	CameraRate	NumFrames	NumMarkers	Units	OrigDataRate	OrigDataStartFrame	OrigNumFrames
100.000000	100.000000	4	56	mm	100.000000	176	470
Frame#	Time	RPSI			LPSI			L3			STRN			T10			C7			CLAV			RBAK			LBAK			LSHO			LUPA			LAEL			LAOL			LWTS			LWPS			LFRA			LIFD			LHPS			LHTS			RSHO			RUPA			RAEL			RAOL			RWTS			RWPS			RFRA			RIFD			RHTS			RHPS			RBHD			LFHD			RFHD			LBHD			LHIP			RHIP			RASI			LASI			LKNE			LTHI			LANK			LTIP			LTOE			LMT1			LMT5			LHEE			RKNE			RTHI			RANK			RTIP			RTOE			RMT1			RMT5			RHEE			*53			*54			*55			
		X1	Y1	Z1	X2	Y2	Z2	X3	Y3	Z3	X4	Y4	Z4	X5	Y5	Z5	X6	Y6	Z6	X7	Y7	Z7	X8	Y8	Z8	X9	Y9	Z9	X10	Y10	Z10	X11	Y11	Z11	X12	Y12	Z12	X13	Y13	Z13	X14	Y14	Z14	X15	Y15	Z15	X16	Y16	Z16	X17	Y17	Z17	X18	Y18	Z18	X19	Y19	Z19	X20	Y20	Z20	X21	Y21	Z21	X22	Y22	Z22	X23	Y23	Z23	X24	Y24	Z24	X25	Y25	Z25	X26	Y26	Z26	X27	Y27	Z27	X28	Y28	Z28	X29	Y29	Z29	X30	Y30	Z30	X31	Y31	Z31	X32	Y32	Z32	X33	Y33	Z33	X34	Y34	Z34	X35	Y35	Z35	X36	Y36	Z36	X37	Y37	Z37	X38	Y38	Z38	X39	Y39	Z39	X40	Y40	Z40	X41	Y41	Z41	X42	Y42	Z42	X43	Y43	Z43	X44	Y44	Z44	X45	Y45	Z45	X46	Y46	Z46	X47	Y47	Z47	X48	Y48	Z48	X49	Y49	Z49	X50	Y50	Z50	X51	Y51	Z51	X52	Y52	Z52	X53	Y53	Z53	X54	Y54	Z54	X55	Y55	Z55	X56	Y56	Z56	

177	1.76	-880.2796020507812	927.3890380859375	-228.0196838378906	-811.3693237304688	931.6686401367188	-352.0234069824219	-835.2728881835938	1030.715576171875	-273.8784790039062	-584.2030029296875	1196.5810546875	-125.569709777832	-841.1441040039062	1154.245483398438	-278.0616455078125	-774.658203125	1411.646118164062	-205.5392456054688	-610.430908203125	1313.287841796875	-133.6874084472656	-880.4844970703125	1291.364624023438	-166.8966979980469	-751.4193725585938	1376.352416992188	-313.0058288574219	-618.625732421875	1388.75	-325.0440368652344	-582.0580444335938	1275.606811523438	-425.5439147949219	-562.7825927734375	1058.971557617188	-460.7789611816406	-666.151123046875	1051.984130859375	-453.048828125	-538.628173828125	847.847900390625	-397.3402709960938	-546.7687377929688	839.1798706054688	-470.6112976074219	-547.8345336914062	969.6406860351562	-465.0588073730469	-549.9159545898438	679.6241455078125	-413.6224975585938	-549.1297607421875	758.3011474609375	-472.9920043945312	-528.5584106445312	756.8170166015625	-405.0365600585938	-794.3271484375	1361.608520507812	-33.19870376586914	-851.8707885742188	1297.957641601562	16.06050300598145	-911.8919677734375	1014.438659667969	33.30925369262695	-933.6718139648438	1010.243041992188	-31.54208374023438	-843.1851806640625	794.4869384765625	24.43549346923828	-930.827392578125	795.4189453125	34.37502670288086	-924.614501953125	956.92626953125	35.61365127563477	-878.6868286132812	640.2630004882812	4.817064762115479	-858.1453247070312	693.7435302734375	26.91209983825684	-933.0110473632812	706.6685180664062	28.76492691040039	-762.9204711914062	1592.070678710938	-92.43359375	-569.593017578125	1627.896362304688	-157.9946441650391	-636.4478759765625	1623.478637695312	-45.41272735595703	-686.3414916992188	1601.604614257812	-252.9811401367188	-654.5005493164062	817.8073120117188	-403.3068542480469	-826.91748046875	835.771728515625	-39.34964370727539	-711.1415405273438	879.0122680664062	-61.15750885009766	-591.3950805664062	846.1885986328125	-286.1513366699219	-777.716064453125	415.1067810058594	-422.3193969726562	-701.2409057617188	554.970703125	-402.3147888183594	-1031.151489257812	98.32197570800781	-558.0579223632812	-856.1688842773438	285.6756896972656	-474.9080810546875	-906.0660400390625	41.96957397460938	-382.8082580566406	-972.8589477539062	55.04467010498047	-397.5362243652344	-912.8612670898438	45.86469650268555	-493.4379577636719	-1094.767578125	133.7108459472656	-545.4255981445312	-683.7645263671875	457.6217041015625	-5.168254375457764	-762.1653442382812	712.8576049804688	6.376056671142578	-618.3402709960938	38.58914566040039	14.68599128723145	-654.7861328125	316.900146484375	21.63536071777344	-413.0024719238281	56.98617172241211	84.15224456787109	-447.1820373535156	57.84027862548828	19.37418174743652	-516.12158203125	44.30086135864258	101.1885375976562	-652.936767578125	31.16957092285156	-57.20888900756836	nan	nan	nan	nan	nan	nan	nan	nan	nan	
178	1.77	-872.3836669921875	930.7472534179688	-222.2284851074219	-802.8645629882812	934.2245483398438	-345.9867248535156	-827.2337646484375	1033.743408203125	-267.3690185546875	-576.858154296875	1198.895263671875	-117.5501861572266	-833.033203125	1156.969604492188	-271.1437072753906	-767.3648681640625	1414.093872070312	-197.4430999755859	-603.1275024414062	1315.620483398438	-125.3999404907227	-872.9832153320312	1293.639770507812	-159.3447875976562	-743.6713256835938	1379.342651367188	-304.8814697265625	-610.826904296875	1392.024536132812	-316.3043518066406	-574.2753295898438	1279.662963867188	-417.4073181152344	-555.9201049804688	1062.964111328125	-453.6470336914062	-659.2247924804688	1056.371704101562	-445.77685546875	-531.7346801757812	851.8178100585938	-389.7790222167969	-539.9594116210938	843.0111694335938	-463.0404052734375	-540.9500122070312	973.595703125	-457.8146057128906	-543.5542602539062	683.5560913085938	-405.5586853027344	-542.6138916015625	762.0842895507812	-465.1724243164062	-521.9639892578125	760.6895751953125	-397.2284851074219	-787.2124633789062	1363.662231445312	-25.34021186828613	-844.5717163085938	1299.936889648438	23.92386245727539	-903.1983032226562	1016.022277832031	41.28832626342773	-925.3585205078125	1011.700866699219	-23.37643432617188	-832.920654296875	796.4804077148438	32.01900100708008	-920.5348510742188	796.7687377929688	42.44616317749023	-915.4715576171875	958.4254760742188	43.63762283325195	-867.4527587890625	642.0399169921875	12.16781997680664	-847.162841796875	695.607177734375	34.35214614868164	-922.0740966796875	708.0145874023438	36.59145736694336	-756.3484497070312	1594.120361328125	-83.92668914794922	-563.2174682617188	1630.468872070312	-149.5918579101562	-629.9265747070312	1625.873046875	-36.9700813293457	-679.908935546875	1603.870483398438	-244.5031127929688	-646.3616943359375	819.1829833984375	-396.3888244628906	-820.0150146484375	838.8638916015625	-33.49148559570312	-703.973388671875	881.74365234375	-54.69915771484375	-583.624267578125	848.2003173828125	-279.0377197265625	-768.2813720703125	416.2567138671875	-416.4964599609375	-691.9019775390625	556.1189575195312	-395.4298400878906	-1027.212768554688	104.2488555908203	-556.2244262695312	-848.603759765625	288.4192504882812	-470.8716735839844	-906.1396484375	42.06082534790039	-382.8284301757812	-971.23486328125	55.57379150390625	-396.7562561035156	-911.6329956054688	46.16996002197266	-492.6500549316406	-1089.082153320312	141.8523712158203	-542.5994873046875	-679.379638671875	459.3515319824219	-1.062065005302429	-755.5185546875	715.3961181640625	11.79434204101562	-618.4102172851562	38.51397705078125	14.80765533447266	-652.23583984375	317.5743408203125	24.25222969055176	-412.8604125976562	56.33937835693359	83.98880767822266	-447.2738647460938	57.8425178527832	19.37244415283203	-516.109619140625	44.21685028076172	101.4499588012695	-653.07421875	31.05583190917969	-57.03768920898438	nan	nan	nan	nan	nan	nan	nan	nan	nan	
179	1.78	-864.4528198242188	933.9759521484375	-216.2800598144531	-794.4526977539062	936.8369140625	-339.8421936035156	-819.3157348632812	1036.709106445312	-260.7350463867188	-569.5482177734375	1201.269897460938	-109.6035537719727	-825.0042724609375	1159.703002929688	-264.1062316894531	-760.1668701171875	1416.555053710938	-189.4184265136719	-595.8941040039062	1318.019775390625	-117.1647415161133	-865.550048828125	1295.901123046875	-151.8348083496094	-736.03125	1382.358642578125	-296.8227233886719	-603.1286010742188	1395.363159179688	-307.5858764648438	-566.4259033203125	1283.827026367188	-409.239990234375	-548.7694091796875	1067.0634765625	-446.4258728027344	-652.0269165039062	1060.882568359375	-438.7573547363281	-524.7437744140625	855.887451171875	-382.0342407226562	-532.7826538085938	846.924072265625	-455.302490234375	-533.7517700195312	977.6624755859375	-450.4338073730469	-537.2175903320312	687.5796508789062	-397.3329467773438	-535.8004150390625	765.9324951171875	-457.1867980957031	-515.3562622070312	764.6354370117188	-389.1719665527344	-780.1862182617188	1365.75927734375	-17.54751014709473	-837.3558349609375	1301.964965820312	31.72575759887695	-894.5037231445312	1017.640625	49.36544418334961	-917.0232543945312	1013.10986328125	-15.11717891693115	-822.351318359375	798.6103515625	39.87332534790039	-909.9368286132812	798.14697265625	50.80606460571289	-906.25146484375	959.9462890625	51.80454635620117	-855.6824340820312	643.8988647460938	19.94643592834473	-835.7191772460938	697.613037109375	42.15085601806641	-910.6876220703125	709.3734130859375	44.77439117431641	-749.8214111328125	1596.218383789062	-75.39533996582031	-556.8737182617188	1633.021362304688	-141.1426086425781	-623.4404296875	1628.226928710938	-28.48378562927246	-673.5068969726562	1606.225708007812	-236.0029754638672	-638.2613525390625	820.758544921875	-389.4764709472656	-813.094970703125	841.6205444335938	-27.61673545837402	-696.7422485351562	884.1522827148438	-48.20431518554688	-575.8777465820312	850.3638916015625	-272.0166015625	-758.1898193359375	417.3210144042969	-410.5626220703125	-682.1012573242188	557.2925415039062	-388.5310363769531	-1022.9765625	110.4796142578125	-553.95458984375	-840.5103149414062	291.2106323242188	-466.68212890625	-906.1856689453125	42.14978408813477	-382.9193725585938	-969.4596557617188	56.14421081542969	-395.9042358398438	-910.32373046875	46.56745910644531	-491.8078002929688	-1082.893188476562	150.2740631103516	-539.1176147460938	-675.5743408203125	460.6681518554688	2.742515802383423	-749.2811889648438	717.4707641601562	17.06939697265625	-618.5123291015625	38.40488433837891	14.90985202789307	-650.1395263671875	317.9910278320312	26.61867904663086	-412.8590393066406	55.94791412353516	83.9532470703125	-447.4163513183594	57.99061584472656	19.46304321289062	-516.1866455078125	44.1370849609375	101.7037124633789	-653.19921875	30.92423629760742	-56.91645812988281	nan	nan	nan	nan	nan	nan	nan	nan	nan	
180	1.79	-856.5401611328125	937.0384521484375	-210.1844482421875	-786.1926879882812	939.4525756835938	-333.5966491699219	-811.5235595703125	1039.567504882812	-253.9839935302734	-562.269287109375	1203.659301757812	-101.7648391723633	-817.1104736328125	1162.39453125	-256.9629211425781	-753.076904296875	1418.981811523438	-181.4795532226562	-588.73486328125	1320.434936523438	-109.0171585083008	-858.200927734375	1298.098022460938	-144.3537750244141	-728.54345703125	1385.344482421875	-288.8497314453125	-595.5792846679688	1398.69775390625	-298.9382019042969	-558.5562744140625	1287.999877929688	-401.076171875	-541.3267822265625	1071.195068359375	-439.1363830566406	-644.5503540039062	1065.405639648438	-432.0382080078125	-517.6451416015625	859.9955444335938	-374.1104125976562	-525.1867065429688	850.8538208007812	-447.3987426757812	-526.2161254882812	981.7720947265625	-442.9248657226562	-530.8667602539062	691.6322021484375	-388.9583435058594	-528.611328125	769.77880859375	-449.0368347167969	-508.7205810546875	768.5901489257812	-380.8694763183594	-773.2382202148438	1367.848266601562	-9.826726913452148	-830.2186279296875	1303.984985351562	39.46030426025391	-885.8311157226562	1019.248718261719	57.5220947265625	-908.6729125976562	1014.422058105469	-6.790971755981445	-811.5022583007812	800.8446655273438	47.99794006347656	-899.05712890625	799.523681640625	59.43367385864258	-896.980712890625	961.4456176757812	60.09781265258789	-843.4004516601562	645.8150024414062	28.17738914489746	-823.8452758789062	699.7322998046875	50.32746505737305	-898.8837280273438	710.71923828125	53.31396484375	-743.345703125	1598.317504882812	-66.86476898193359	-550.5563354492188	1635.519775390625	-132.6786193847656	-616.9951782226562	1630.500732421875	-19.98616027832031	-667.1410522460938	1608.625610351562	-227.5101318359375	-630.2361450195312	822.4990234375	-382.5733947753906	-806.212158203125	844.0040893554688	-21.74672889709473	-689.4885864257812	886.1973876953125	-41.682373046875	-568.1966552734375	852.6310424804688	-265.1069641113281	-747.4073486328125	418.23876953125	-404.5194702148438	-671.8272094726562	558.4614868164062	-381.6667785644531	-1018.394409179688	117.0692825317383	-551.2244262695312	-831.8546142578125	294.0164489746094	-462.3208923339844	-906.1424560546875	42.18618392944336	-383.0559387207031	-967.5150146484375	56.82438278198242	-394.96142578125	-908.8955688476562	47.11611938476562	-490.8969421386719	-1076.174072265625	158.9884948730469	-534.9678955078125	-672.2382202148438	461.5927429199219	6.249677181243896	-743.475341796875	719.0596923828125	22.21251106262207	-618.6179809570312	38.29502487182617	14.982253074646	-648.3433837890625	318.1878051757812	28.74959564208984	-412.92578125	55.71190643310547	83.99102020263672	-447.552978515625	58.19330215454102	19.58502388000488	-516.2867431640625	44.05713272094727	101.9155502319336	-653.3017578125	30.79916954040527	-56.84621429443359	nan	nan	nan	nan	nan	nan	nan	nan	nan	
